<svg xmlns="http://www.w3.org/2000/svg" viewBox="0 0 267.42 48.04"><defs><style>.cls-1{fill:#ff6832;}.cls-2{fill:#000;}</style></defs><title>Ресурс 1</title><g id="Слой_2" data-name="Слой 2"><g id="Слой_1-2" data-name="Слой 1"><circle class="cls-1" cx="194.45" cy="26.86" r="6.25"/><path class="cls-2" d="M0,47.3V0H11.06V37.84h25V47.3Z"/><path class="cls-2" d="M44.94,47.3V0H56V47.3Z"/><path class="cls-2" d="M68.56,47.3V0H78.75L102.3,29.12V0h10.91V47.3h-9.4L79.47,17.23V47.3Z"/><path class="cls-1" d="M194.33,48q-10.26,0-16-5.37T172.58,27V0h11.06V26.76c0,3.78.94,6.68,2.83,8.68s4.56,3,8,3,6.11-1,8-2.91,2.84-4.75,2.84-8.44V0h11.05V26.69q0,10.54-5.85,16T194.33,48Z"/><path class="cls-2" d="M227.64,47.3V0h20.54q8.9,0,14.07,4.53a15.14,15.14,0,0,1,5.17,12q0,7.91-5.75,12.26T247.1,33.11h-8.4V47.3ZM238.7,23.85h8.76a9.45,9.45,0,0,0,6.42-2,6.67,6.67,0,0,0,2.34-5.28,6.35,6.35,0,0,0-2.37-5.3,10.46,10.46,0,0,0-6.61-1.86H238.7Z"/><polygon class="cls-2" points="136.26 38.04 136.26 28.11 159.95 28.11 159.95 18.85 136.26 18.85 125.27 18.85 125.27 47.3 163.54 47.3 163.54 38.04 136.26 38.04"/><polygon class="cls-2" points="136.26 9.26 159.95 9.26 163.18 9.26 163.18 0 125.27 0 125.27 9.26 136.26 9.26"/></g></g></svg>
